# Made in Blockbench 4.12.2
mtllib mesg13_buckit.mtl

o cylinder
v -4.625929269271485e-18 0 -4.625929269271485e-18
v 0.06698729810778065 0 0.25
v 0.06698729810778065 0.5 0.25
v 0.18301270189221924 0 0.18301270189221933
v 0.18301270189221924 0.5 0.18301270189221933
v 0.25 0 0.06698729810778065
v 0.25 0.5 0.06698729810778065
v 0.25 0 -0.06698729810778069
v 0.25 0.5 -0.06698729810778069
v 0.18301270189221933 0 -0.18301270189221933
v 0.18301270189221933 0.5 -0.18301270189221933
v 0.06698729810778073 0 -0.24999999999999992
v 0.06698729810778073 0.5 -0.24999999999999992
v -0.06698729810778056 0 -0.25
v -0.06698729810778056 0.5 -0.25
v -0.18301270189221933 0 -0.18301270189221933
v -0.18301270189221933 0.5 -0.18301270189221933
v -0.24999999999999992 0 -0.06698729810778063
v -0.24999999999999992 0.5 -0.06698729810778063
v -0.25 0 0.06698729810778054
v -0.25 0.5 0.06698729810778054
v -0.18301270189221933 0 0.18301270189221924
v -0.18301270189221933 0.5 0.18301270189221924
v -0.06698729810778065 0 0.25
v -0.06698729810778065 0.5 0.25
v 0.16014137766384012 0.5 0.1601413776638402
v 0.05861311522386841 0.5 0.2187471240053659
v -0.05861311522386841 0.5 0.2187471240053659
v -0.16013400878149744 0.5 0.1601340087814974
v -0.2187471240053659 0.5 0.05861311522386831
v -0.21874712400536583 0.5 -0.0586131152238684
v -0.16013400878149744 0.5 -0.16013400878149744
v -0.05861311522386834 0.5 -0.2187471240053659
v 0.05861311522386849 0.5 -0.21874712400536583
v 0.16013400878149744 0.5 -0.16013400878149744
v 0.2187471240053659 0.5 -0.05861311522386845
v 0.2187471240053659 0.5 0.05861311522386841
v 0.05861311522386841 0.3125 0.2187471240053659
v -4.625929269271485e-18 0.3125 -4.625929269271485e-18
v -0.05861311522386841 0.3125 0.2187471240053659
v -0.21874712400536583 0.3125 -0.0586131152238684
v -0.16013400878149744 0.3125 -0.16013400878149744
v -0.16013400878149744 0.3125 0.1601340087814974
v -0.2187471240053659 0.3125 0.05861311522386831
v -0.05861311522386834 0.3125 -0.2187471240053659
v 0.05861311522386849 0.3125 -0.21874712400536583
v 0.16013400878149744 0.3125 -0.16013400878149744
v 0.2187471240053659 0.3125 -0.05861311522386845
v 0.2187471240053659 0.3125 0.05861311522386841
v 0.16014137766384012 0.3125 0.1601413776638402
vt 0.68525625 0.96650625
vt 0.62724375 1
vt 0.59375 0.875
vt 0.39286875 0.09375
vt 0.45985625 0.09375
vt 0.45985625 0.34375
vt 0.39286875 0.34375
vt 0.673821875 0.388678125
vt 0.62305625 0.359375
vt 0.62724375 0.34375
vt 0.68525625 0.37724375
vt 0.71875 0.90849375
vt 0.68525625 0.96650625
vt 0.59375 0.875
vt 0.008893749999999992 0.25
vt 0.07588125 0.25
vt 0.07588125 0.5
vt 0.008893749999999992 0.5
vt 0.703125 0.43944375
vt 0.673821875 0.388678125
vt 0.68525625 0.37724375
vt 0.71875 0.43525625
vt 0.71875 0.84150625
vt 0.71875 0.90849375
vt 0.59375 0.875
vt 0.07588125 0.25
vt 0.14286875 0.25
vt 0.14286875 0.5
vt 0.07588125 0.5
vt 0.703125 0.49805625
vt 0.703125 0.43944375
vt 0.71875 0.43525625
vt 0.71875 0.50224375
vt 0.68525625 0.78349375
vt 0.71875 0.84150625
vt 0.59375 0.875
vt 0.14286875 0.25
vt 0.20985625000000002 0.25
vt 0.20985625000000002 0.5
vt 0.14286875 0.5
vt 0.673815625 0.548815625
vt 0.703125 0.49805625
vt 0.71875 0.50224375
vt 0.68525625 0.56025625
vt 0.62724375 0.75
vt 0.68525625 0.78349375
vt 0.59375 0.875
vt 0.75889375 0.75
vt 0.82588125 0.75
vt 0.82588125 1
vt 0.75889375 1
vt 0.62305625 0.578125
vt 0.673815625 0.548815625
vt 0.68525625 0.56025625
vt 0.62724375 0.59375
vt 0.56025625 0.75
vt 0.62724375 0.75
vt 0.59375 0.875
vt 0.82588125 0.75
vt 0.89286875 0.75
vt 0.89286875 1
vt 0.82588125 1
vt 0.56444375 0.578125
vt 0.62305625 0.578125
vt 0.62724375 0.59375
vt 0.56025625 0.59375
vt 0.50224375 0.78349375
vt 0.56025625 0.75
vt 0.59375 0.875
vt 0.89286875 0.75
vt 0.9598562500000001 0.75
vt 0.9598562500000001 1
vt 0.89286875 1
vt 0.513684375 0.548815625
vt 0.56444375 0.578125
vt 0.56025625 0.59375
vt 0.50224375 0.56025625
vt 0.46875 0.84150625
vt 0.50224375 0.78349375
vt 0.59375 0.875
vt 0.50889375 0.0625
vt 0.57588125 0.0625
vt 0.57588125 0.3125
vt 0.50889375 0.3125
vt 0.4843750000000001 0.4980562500000001
vt 0.5136843750000002 0.548815625
vt 0.5022437500000001 0.56025625
vt 0.4687500000000001 0.5022437500000001
vt 0.46875 0.90849375
vt 0.46875 0.84150625
vt 0.59375 0.875
vt 0.57588125 0.0625
vt 0.64286875 0.0625
vt 0.64286875 0.3125
vt 0.57588125 0.3125
vt 0.484375 0.43944375
vt 0.4843750000000001 0.4980562500000001
vt 0.4687500000000001 0.5022437500000001
vt 0.46875 0.43525625
vt 0.50224375 0.96650625
vt 0.46875 0.90849375
vt 0.59375 0.875
vt 0.64286875 0.0625
vt 0.7098562500000001 0.0625
vt 0.7098562500000001 0.3125
vt 0.64286875 0.3125
vt 0.513684375 0.38868437499999997
vt 0.484375 0.43944375
vt 0.46875 0.43525625
vt 0.50224375 0.3772437500000001
vt 0.56025625 1
vt 0.50224375 0.96650625
vt 0.59375 0.875
vt 0.25889375 0.09375
vt 0.32588125 0.09375
vt 0.32588125 0.34375
vt 0.25889375 0.34375
vt 0.56444375 0.359375
vt 0.513684375 0.38868437499999997
vt 0.50224375 0.3772437500000001
vt 0.56025625 0.34375
vt 0.62724375 1
vt 0.56025625 1
vt 0.59375 0.875
vt 0.32588125 0.09375
vt 0.39286875 0.09375
vt 0.39286875 0.34375
vt 0.32588125 0.34375
vt 0.62305625 0.359375
vt 0.56444375 0.359375
vt 0.56025625 0.34375
vt 0.62724375 0.34375
vt 0.939446875 0.529303125
vt 0.859375 0.609375
vt 0.88868125 0.5
vt 0.88868125 0.5
vt 0.859375 0.609375
vt 0.83006875 0.5
vt 0.83006875 0.5
vt 0.859375 0.609375
vt 0.779309375 0.529309375
vt 0.779309375 0.529309375
vt 0.859375 0.609375
vt 0.75 0.58006875
vt 0.75 0.58006875
vt 0.859375 0.609375
vt 0.75 0.63868125
vt 0.75 0.63868125
vt 0.859375 0.609375
vt 0.779309375 0.689440625
vt 0.779309375 0.689440625
vt 0.859375 0.609375
vt 0.83006875 0.71875
vt 0.83006875 0.71875
vt 0.859375 0.609375
vt 0.88868125 0.71875
vt 0.88868125 0.71875
vt 0.859375 0.609375
vt 0.939440625 0.689440625
vt 0.939440625 0.689440625
vt 0.859375 0.609375
vt 0.96875 0.63868125
vt 0.96875 0.63868125
vt 0.859375 0.609375
vt 0.96875 0.58006875
vt 0.96875 0.58006875
vt 0.859375 0.609375
vt 0.939446875 0.529303125
vt 0.5644453125 0.625
vt 0.6230578125 0.625
vt 0.6230578125 0.71875
vt 0.5644453125 0.71875
vt 0.87305625 0.375
vt 0.93166875 0.375
vt 0.93166875 0.46875
vt 0.87305625 0.46875
vt 0.75583125 0.375
vt 0.81444375 0.375
vt 0.81444375 0.46875
vt 0.75583125 0.46875
vt 0.6230578125 0.625
vt 0.6816703125 0.625
vt 0.6816703125 0.71875
vt 0.6230578125 0.71875
vt 0.81444375 0.375
vt 0.87305625 0.375
vt 0.87305625 0.46875
vt 0.81444375 0.46875
vt 0.75583125 0.25
vt 0.81444375 0.25
vt 0.81444375 0.34375
vt 0.75583125 0.34375
vt 0.81444375 0.25
vt 0.87305625 0.25
vt 0.87305625 0.34375
vt 0.81444375 0.34375
vt 0.2558296875 0.375
vt 0.31444218749999997 0.375
vt 0.31444218749999997 0.46875
vt 0.2558296875 0.46875
vt 0.87305625 0.25
vt 0.93166875 0.25
vt 0.93166875 0.34375
vt 0.87305625 0.34375
vt 0.31444218749999997 0.375
vt 0.37305468750000004 0.375
vt 0.37305468750000004 0.46875
vt 0.31444218749999997 0.46875
vt 0.37305468750000004 0.375
vt 0.4316703125 0.375
vt 0.4316703125 0.46875
vt 0.37305468750000004 0.46875
vt 0.5058296875 0.625
vt 0.5644453125 0.625
vt 0.5644453125 0.71875
vt 0.5058296875 0.71875
vn 0 -1 0
vn 0.5000000000000002 0 0.8660254037844387
vn 0 1 0
vn 0 -1 0
vn 0.8660254037844384 0 0.5000000000000003
vn 0 1 0
vn 0 -1 0
vn 1 0 0
vn 0 1 0
vn 0 -1 0
vn 0.8660254037844388 0 -0.5000000000000001
vn 0 1 0
vn 0 -1 0
vn 0.49999999999999967 0 -0.8660254037844388
vn 0 1 0
vn 0 -1 0
vn 6.215113103450819e-16 0 -1
vn 0 1 0
vn 0 -1 0
vn -0.4999999999999996 0 -0.8660254037844388
vn 0 1 0
vn 0 -1 0
vn -0.866025403784439 0 -0.4999999999999994
vn 0 1 0
vn 0 -1 0
vn -1 0 -6.215113103450823e-16
vn 0 1 0
vn 0 -1 0
vn -0.8660254037844388 0 0.4999999999999998
vn 0 1 0
vn 0 -1 0
vn -0.5000000000000003 0 0.8660254037844384
vn 0 1 0
vn 0 -1 0
vn 0 0 1
vn 0 1 0
vn 0 1 0
vn 0 1 0
vn 0 1 0
vn 0 1 0
vn 0 1 0
vn 0 1 0
vn 0 1 0
vn 0 1 0
vn 0 1 0
vn 0 1 0
vn 0 1 0
vn 0 1 0
vn 0 0 -1
vn 0.866025403784439 0 0.4999999999999995
vn 0.8660254037844389 0 -0.49999999999999967
vn 0.5000000000000003 0 -0.8660254037844386
vn 1 0 4.735386527335834e-16
vn 0.4999999999999996 0 0.8660254037844389
vn -4.73538652733583e-16 0 1
vn -0.8660254037844387 0 0.5
vn -0.4999999999999998 0 0.8660254037844388
vn -1 0 0
vn -0.866068334024013 0 -0.4999256352707578
vn -0.49992563527075756 0 -0.8660683340240131
usemtl m_776273b9-e197-a11f-4eed-942796dd3627
f 4/1/1 2/2/1 1/3/1
f 2/4/2 4/5/2 5/6/2 3/7/2
f 26/8/3 27/9/3 3/10/3 5/11/3
f 6/12/4 4/13/4 1/14/4
f 4/15/5 6/16/5 7/17/5 5/18/5
f 37/19/6 26/20/6 5/21/6 7/22/6
f 8/23/7 6/24/7 1/25/7
f 6/26/8 8/27/8 9/28/8 7/29/8
f 36/30/9 37/31/9 7/32/9 9/33/9
f 10/34/10 8/35/10 1/36/10
f 8/37/11 10/38/11 11/39/11 9/40/11
f 35/41/12 36/42/12 9/43/12 11/44/12
f 12/45/13 10/46/13 1/47/13
f 10/48/14 12/49/14 13/50/14 11/51/14
f 34/52/15 35/53/15 11/54/15 13/55/15
f 14/56/16 12/57/16 1/58/16
f 12/59/17 14/60/17 15/61/17 13/62/17
f 33/63/18 34/64/18 13/65/18 15/66/18
f 16/67/19 14/68/19 1/69/19
f 14/70/20 16/71/20 17/72/20 15/73/20
f 32/74/21 33/75/21 15/76/21 17/77/21
f 18/78/22 16/79/22 1/80/22
f 16/81/23 18/82/23 19/83/23 17/84/23
f 31/85/24 32/86/24 17/87/24 19/88/24
f 20/89/25 18/90/25 1/91/25
f 18/92/26 20/93/26 21/94/26 19/95/26
f 30/96/27 31/97/27 19/98/27 21/99/27
f 22/100/28 20/101/28 1/102/28
f 20/103/29 22/104/29 23/105/29 21/106/29
f 29/107/30 30/108/30 21/109/30 23/110/30
f 24/111/31 22/112/31 1/113/31
f 22/114/32 24/115/32 25/116/32 23/117/32
f 28/118/33 29/119/33 23/120/33 25/121/33
f 2/122/34 24/123/34 1/124/34
f 24/125/35 2/126/35 3/127/35 25/128/35
f 27/129/36 28/130/36 25/131/36 3/132/36
f 50/133/37 39/134/37 38/135/37
f 38/136/38 39/137/38 40/138/38
f 40/139/39 39/140/39 43/141/39
f 43/142/40 39/143/40 44/144/40
f 44/145/41 39/146/41 41/147/41
f 41/148/42 39/149/42 42/150/42
f 42/151/43 39/152/43 45/153/43
f 45/154/44 39/155/44 46/156/44
f 46/157/45 39/158/45 47/159/45
f 47/160/46 39/161/46 48/162/46
f 48/163/47 39/164/47 49/165/47
f 49/166/48 39/167/48 50/168/48
f 38/169/49 40/170/49 28/171/49 27/172/49
f 41/173/50 42/174/50 32/175/50 31/176/50
f 43/177/51 44/178/51 30/179/51 29/180/51
f 40/181/52 43/182/52 29/183/52 28/184/52
f 44/185/53 41/186/53 31/187/53 30/188/53
f 42/189/54 45/190/54 33/191/54 32/192/54
f 45/193/55 46/194/55 34/195/55 33/196/55
f 47/197/56 48/198/56 36/199/56 35/200/56
f 46/201/57 47/202/57 35/203/57 34/204/57
f 48/205/58 49/206/58 37/207/58 36/208/58
f 49/209/59 50/210/59 26/211/59 37/212/59
f 50/213/60 38/214/60 27/215/60 26/216/60
o tube
v 0.18382192049784282 0.364464422433037 0.30104184097538617
v 0.18326969322384387 0.33532791258915307 0.2897581651933059
v 0.14332639863421878 0.3879670049060886 0.24233575027160617
v 0.14277417136021986 0.35883049506220466 0.23105207448952592
v 0.01133826672055624 0.34749584033306696 0.353299230208758
v 0.010786039446557316 0.318359330489183 0.3420155544266777
v 0.007879093812816068 0.3746419815676492 0.28337223328699135
v 0.007326866538817117 0.3455054717237653 0.2720885575049111
v -0.1654620138235175 0.36440233848883713 0.3182962382226407
v -0.16601424109751642 0.3352658286449532 0.3070125624405604
v -0.13095795518826525 0.3879182518635225 0.25588521743720843
v -0.13151018246226417 0.3587817420196386 0.24460154165512818
v -0.2679554287409978 0.4106538343726705 0.2054118884523875
v -0.26850765601499677 0.38151732452878656 0.19412821267030728
v -0.23598347320966512 0.4242384498894319 0.16723982642154822
v -0.236535700483664 0.39510194004554794 0.15595615063946797
v -0.2797214006147454 0.5016447218057929 -0.028833256925708983
v -0.2802736278887443 0.47250821196190884 -0.040116932707789266
v -0.2515968201158691 0.5016580527074268 -0.03253818700736116
v -0.25214904738986804 0.47252154286354264 -0.043821862789441446
v 0.2738701989954669 0.5001182825242878 -0.05391637196247909
v 0.27331797172146793 0.4709817726804038 -0.06520004774455934
v 0.24574561849659077 0.5001049516226541 -0.05021144188082699
v 0.24519339122259182 0.47096844177877006 -0.06149511766290727
v 0.27452209177114895 0.41076136691835907 0.17552639576616613
v 0.27396986449715 0.3816248570744751 0.16424271998408588
v 0.23909096333207605 0.42432289263617995 0.14377146087523884
v 0.2385387360580771 0.395186382792296 0.13248778509315856
vt 0.756475 0.203125
vt 0.8469875 0.203125
vt 0.8469875 0.21875
vt 0.756475 0.21875
vt 0.078125 0.15625
vt 0.007050000000000001 0.15625
vt 0.007050000000000001 0.140625
vt 0.078125 0.140625
vt 0.17007997892775414 0.9428482984059581
vt 0.23163622892775415 0.9073107984059581
vt 0.2581831039277541 0.933857673405958
vt 0.17979872892775414 0.979113923405958
vt 0.33604733237767787 0.5208879485260054
vt 0.41443170737767787 0.5661441985260054
vt 0.3878848323776779 0.5926910735260054
vt 0.32632858237767787 0.5571535735260054
vt 0.8469875 0.203125
vt 0.9375 0.203125
vt 0.9375 0.21875
vt 0.8469875 0.21875
vt 0.1492 0.5625
vt 0.078125 0.5625
vt 0.078125 0.546875
vt 0.1492 0.546875
vt 0.23163622892775415 0.9073107984059581
vt 0.26717372892775415 0.8457545484059581
vt 0.3034393539277541 0.8554732984059581
vt 0.2581831039277541 0.933857673405958
vt 0.41443170737767787 0.5661441985260054
vt 0.45968795737767787 0.6445285735260053
vt 0.4234223323776779 0.6542473235260053
vt 0.3878848323776779 0.5926910735260054
vt 0.0625 0.7186960639466538
vt 0.0625 0.6390299643079704
vt 0.09375 0.6390839003613167
vt 0.09375 0.71875
vt 0.078125 0.5625
vt 0.007050000000000001 0.5625
vt 0.007050000000000001 0.546875
vt 0.078125 0.546875
vt 0.26717372892775415 0.8457545484059581
vt 0.26717372892775415 0.7746795484059581
vt 0.2929174789277541 0.7765045484059581
vt 0.3034393539277541 0.8554732984059581
vt 0.45968795737767787 0.6445285735260053
vt 0.44915923968768995 0.72349653986249
vt 0.4234157159881421 0.7253223908069659
vt 0.42342334437541385 0.6542470523228205
vt 0.09375 0.875
vt 0.09375 0.75
vt 0.125 0.75
vt 0.125 0.875
vt 0.1875 0.78125
vt 0.1875 0.875
vt 0.15625 0.875
vt 0.15625 0.78125
vt 0.26717372892775415 0.7746795484059581
vt 0.1932699090875578 0.6967345625301234
vt 0.20403406462017457 0.6875
vt 0.2929149072815501 0.7765043660994051
vt 0.44915923968768995 0.72349653986249
vt 0.3602729432034102 0.8125
vt 0.3495107259571655 0.8032638404715349
vt 0.4234159613281183 0.7253223734063089
vt 0 0.20289687499999998
vt 0.1231125 0.203125
vt 0.1231125 0.21875
vt 0 0.21852187499999998
vt 0.03125 0.7082716253507172
vt 0.03125 0.8125
vt 0 0.8124658015090709
vt 0 0.7082374268597881
vt 0.025083523212266506 0.8693728635485765
vt 0.09900497892775414 0.9428482984059581
vt 0.09981437600566137 0.9675708477624216
vt 0.009060646072245881 0.884378965040434
vt 0.16531204262232213 0.6156268151202158
vt 0.25606159748249746 0.5324298375204104
vt 0.25525360516589923 0.55715356114256
vt 0.1813351483091134 0.630630744819316
vt 0.1231125 0.203125
vt 0.203928125 0.20284999999999997
vt 0.203928125 0.21847499999999997
vt 0.1231125 0.21875
vt 0.1492 0.15625
vt 0.078125 0.15625
vt 0.078125 0.140625
vt 0.1492 0.140625
vt 0.09900497892775414 0.9428482984059581
vt 0.17007997892775414 0.9428482984059581
vt 0.17979872892775414 0.979113923405958
vt 0.09981435392775415 0.9675701734059581
vt 0.25606159748249746 0.5324298375204104
vt 0.33604733237767787 0.5208879485260054
vt 0.32632817504848427 0.5571550934794753
vt 0.25525369585394275 0.557150786182852
vt 0.009102535360748648 0.96875
vt 0.03105425795830352 0.96875
vt 0.03125 1
vt 0.009298277402445126 1
vt 0.14161147233848154 0.6875
vt 0.15579559673040735 0.6875
vt 0.15625 0.71875
vt 0.1420658756080742 0.71875
vn 0.3030005353977967 -0.3491456482738721 0.8867288152755984
vn -0.30300053539779664 0.34914564827387207 -0.8867288152755983
vn 0.01767127276796607 0.9323683150042872 0.36107762502656787
vn -0.01767127276796607 -0.9323683150042872 -0.36107762502656787
vn -0.21400710540089612 -0.3492375444945919 0.9122686536066653
vn 0.21400710540089612 0.3492375444945919 -0.9122686536066653
vn 0.01767127276796607 0.9323683150042872 0.36107762502656787
vn -0.01767127276796607 -0.9323683150042872 -0.36107762502656787
vn -0.7653842566338626 -0.21975044691567702 0.6048939417595369
vn 0.6736717151328969 0.25575152270135754 -0.6933668429235985
vn 0.024896315802389758 0.9350579648607851 0.353619535390615
vn -0.02880787274971252 -0.9338624297640484 -0.35647029152907567
vn -0.9987492163317411 -0.0004333520445003457 0.04999815079318935
vn 0.9972001010435396 0.00980947946913538 -0.07413320842442406
vn 0.04668867888848942 0.9326398064454617 0.3577752907860173
vn -0.04693426001579848 -0.9319111928145033 -0.3596369057032653
vn 0.9998402586046775 -0.015510591581255034 -0.008881375013548964
vn -0.9993356208700528 0.027983431138054404 -0.02335046984555328
vn 0.0294605374407449 0.9306979048446183 0.36460044795850227
vn -0.03148076004027015 -0.9313957384063536 -0.36264437156223756
vn 0.8274745532654585 -0.2163469605977833 0.5181504186413741
vn -0.7388194274304523 0.2555004575573274 -0.6235907069860287
vn 0.01767127276796607 0.9323683150042872 0.36107762502656787
vn -0.020801108156629854 -0.9330344117892257 -0.3591853286488605
vn -0.12199315174566938 0.36044644263127534 -0.9247680968338046
vn -0.12199315174567144 0.3604464426312747 -0.9247680968338045
usemtl m_776273b9-e197-a11f-4eed-942796dd3627
f 51/217/61 55/218/61 56/219/61 52/220/61
f 54/221/62 58/222/62 57/223/62 53/224/62
f 53/225/63 57/226/63 55/227/63 51/228/63
f 52/229/64 56/230/64 58/231/64 54/232/64
f 55/233/65 59/234/65 60/235/65 56/236/65
f 58/237/66 62/238/66 61/239/66 57/240/66
f 57/241/67 61/242/67 59/243/67 55/244/67
f 56/245/68 60/246/68 62/247/68 58/248/68
f 59/249/69 63/250/69 64/251/69 60/252/69
f 62/253/70 66/254/70 65/255/70 61/256/70
f 61/257/71 65/258/71 63/259/71 59/260/71
f 60/261/72 64/262/72 66/263/72 62/264/72
f 63/265/73 67/266/73 68/267/73 64/268/73
f 66/269/74 70/270/74 69/271/74 65/272/74
f 65/273/75 69/274/75 67/275/75 63/276/75
f 64/277/76 68/278/76 70/279/76 66/280/76
f 71/281/77 75/282/77 76/283/77 72/284/77
f 74/285/78 78/286/78 77/287/78 73/288/78
f 73/289/79 77/290/79 75/291/79 71/292/79
f 72/293/80 76/294/80 78/295/80 74/296/80
f 75/297/81 51/298/81 52/299/81 76/300/81
f 78/301/82 54/302/82 53/303/82 77/304/82
f 77/305/83 53/306/83 51/307/83 75/308/83
f 76/309/84 52/310/84 54/311/84 78/312/84
f 73/313/85 71/314/85 72/315/85 74/316/85
f 67/317/86 69/318/86 70/319/86 68/320/86